<svg width="312" height="114" viewBox="0 0 312 114" fill="none" xmlns="http://www.w3.org/2000/svg">
<path fill-rule="evenodd" clip-rule="evenodd" d="M0.398932 79.1894L0.383223 79.2236L0.368379 79.2582C-0.00480986 80.129 -0.314385 81.6156 0.593353 83.0185C1.51388 84.4411 3.0239 84.76 4.00581 84.76H14.8958C16.8323 84.76 18.7929 83.5309 19.6144 81.6652L22.6744 74.9987L22.6773 74.9924C22.9397 74.4376 23.6137 73.98 24.3558 73.98H26.2344V70.98H24.3558C22.4858 70.98 20.7258 72.08 19.9558 73.73L16.8758 80.44C16.5458 81.21 15.6658 81.76 14.8958 81.76H4.00581C3.12581 81.76 2.79581 81.21 3.12581 80.44L26.2344 30.0546V28H27.1767L37.8858 4.65C38.1058 4.1 38.8758 3.66 39.5358 3.66C40.1958 3.66 40.8558 4.1 41.0758 4.65L51.785 28H55.0854L43.8245 3.44698C43.0912 1.72703 41.3004 0.659998 39.5358 0.659998C38.5857 0.659998 37.7071 0.959752 37.0196 1.36597C36.3789 1.7446 35.5814 2.41052 35.1381 3.44479L0.398932 79.1894ZM199.937 28V20.16C199.937 20.1353 199.938 20.1142 199.94 20.0963C199.982 20.0879 200.043 20.08 200.127 20.08H220.697C221.77 20.08 222.948 19.732 223.864 18.8163C224.779 17.9006 225.127 16.7227 225.127 15.65V6.19C225.127 5.11732 224.779 3.93941 223.864 3.02368C222.948 2.10795 221.77 1.76 220.697 1.76H160.197C159.125 1.76 157.947 2.10795 157.031 3.02368C156.115 3.93941 155.767 5.11732 155.767 6.19V15.65C155.767 16.7227 156.115 17.9006 157.031 18.8163C157.947 19.732 159.125 20.08 160.197 20.08H180.657C180.686 20.08 180.712 20.0809 180.735 20.0825C180.736 20.105 180.737 20.1308 180.737 20.16V28H183.737V20.16C183.737 18.29 182.527 17.08 180.657 17.08H160.197C159.317 17.08 158.767 16.53 158.767 15.65V6.19C158.767 5.31 159.317 4.76 160.197 4.76H220.697C221.577 4.76 222.127 5.31 222.127 6.19V15.65C222.127 16.53 221.577 17.08 220.697 17.08H200.127C198.257 17.08 196.937 18.29 196.937 20.16V28H199.937ZM296.234 73.9979C303.328 66.7375 307.848 56.4243 307.848 43.26C307.848 29.0431 302.576 18.1516 294.485 10.8392C286.444 3.57339 275.801 0 265.248 0C254.644 0 243.973 3.57112 235.917 10.8374C231.009 15.2649 227.14 21.0047 224.851 28H228.02C233.938 11.3333 249.559 3 265.248 3C285.048 3 304.848 16.42 304.848 43.26C304.848 54.2597 301.523 63.0054 296.234 69.4972V73.9979ZM287.845 28C282.853 20.1856 274.026 16.31 265.248 16.31C256.397 16.31 247.594 20.1856 242.626 28H246.291C247.074 26.9918 247.933 26.0776 248.852 25.2548C253.236 21.3284 259.176 19.31 265.248 19.31C271.261 19.31 277.204 21.3261 281.606 25.2575C282.527 26.0799 283.388 26.9932 284.174 28H287.845ZM150.521 28H147.521V6.19C147.521 5.31 146.861 4.76 146.091 4.76H135.751C134.871 4.76 134.321 5.31 134.321 6.19V28H131.321V6.19C131.321 5.11732 131.669 3.93941 132.584 3.02368C133.5 2.10795 134.678 1.76 135.751 1.76H146.091C148.363 1.76 150.521 3.50238 150.521 6.19V28ZM101.461 28V6.19C101.461 5.11732 101.113 3.93941 100.197 3.02368C99.2812 2.10795 98.1033 1.76 97.0306 1.76H86.6906C85.6179 1.76 84.44 2.10795 83.5243 3.02368C82.6085 3.93941 82.2606 5.11732 82.2606 6.19V28H85.2606V6.19C85.2606 5.31 85.8106 4.76 86.6906 4.76H97.0306C97.9106 4.76 98.4606 5.31 98.4606 6.19V28H101.461Z" fill="url(#paint0_linear_61_419)"/>
<path fill-rule="evenodd" clip-rule="evenodd" d="M56.6156 82.76V109.33C56.6156 110.403 56.9636 111.581 57.8793 112.496C58.795 113.412 59.9729 113.76 61.0456 113.76H71.3856C72.4583 113.76 73.6362 113.412 74.5519 112.496C75.4677 111.581 75.8156 110.403 75.8156 109.33V85.68C75.8156 85.6508 75.8166 85.6251 75.8181 85.6025C75.8407 85.601 75.8664 85.6 75.8956 85.6H100.096C101.168 85.6 102.346 85.2521 103.262 84.3363C103.734 83.8639 104.056 83.3216 104.256 82.76H74.7938C73.5642 83.1466 72.8156 84.2091 72.8156 85.68V109.33C72.8156 110.21 72.2656 110.76 71.3856 110.76H61.0456C60.1656 110.76 59.6156 110.21 59.6156 109.33V82.76H56.6156ZM119.887 82.76V109.33C119.887 110.403 120.235 111.581 121.151 112.496C122.067 113.412 123.244 113.76 124.317 113.76H171.287C172.36 113.76 173.538 113.412 174.453 112.496C175.369 111.581 175.717 110.403 175.717 109.33V99.87C175.717 98.7973 175.369 97.6194 174.453 96.7037C173.538 95.788 172.36 95.44 171.287 95.44H139.167C139.138 95.44 139.112 95.4391 139.09 95.4376C139.088 95.415 139.087 95.3892 139.087 95.36V82.76H136.087V95.36C136.087 97.23 137.297 98.44 139.167 98.44H171.287C172.167 98.44 172.717 98.99 172.717 99.87V109.33C172.717 110.21 172.167 110.76 171.287 110.76H124.317C123.437 110.76 122.887 110.21 122.887 109.33V82.76H119.887ZM182.084 82.76V109.33C182.084 110.403 182.432 111.581 183.348 112.496C184.264 113.412 185.442 113.76 186.514 113.76H233.484C234.557 113.76 235.735 113.412 236.651 112.496C237.566 111.581 237.914 110.403 237.914 109.33V99.87C237.914 98.7973 237.566 97.6194 236.651 96.7037C235.735 95.788 234.557 95.44 233.484 95.44H201.364C201.335 95.44 201.309 95.4391 201.287 95.4376C201.285 95.415 201.284 95.3892 201.284 95.36V82.76H198.284V95.36C198.284 97.23 199.494 98.44 201.364 98.44H233.484C234.364 98.44 234.914 98.99 234.914 99.87V109.33C234.914 110.21 234.364 110.76 233.484 110.76H186.514C185.634 110.76 185.084 110.21 185.084 109.33V82.76H182.084ZM259.016 82.76L243.257 107.959L243.225 108.01L243.195 108.062C242.899 108.581 242.089 110.17 242.988 111.856C243.939 113.639 245.818 113.76 246.46 113.76H259C260.774 113.76 262.71 112.896 263.769 111.101L276.82 90.239L289.872 111.101C290.93 112.896 292.866 113.76 294.64 113.76H307.18C307.941 113.76 309.595 113.557 310.536 111.987C311.505 110.373 310.854 108.778 310.445 108.062L310.415 108.01L310.384 107.959L294.624 82.76H291.086L306.721 107.76L306.761 107.824L307.18 108.495L307.84 109.55C308.28 110.32 307.95 110.76 307.18 110.76H305.905H305.723H305.121H305.058H294.64C293.76 110.76 292.88 110.32 292.44 109.55L278.47 87.22C277.92 86.45 277.37 86.01 276.82 86.01C276.27 86.01 275.72 86.45 275.17 87.22L261.2 109.55C260.76 110.32 259.88 110.76 259 110.76H248.582H248.51H247.918H247.735H246.46C245.58 110.76 245.36 110.32 245.8 109.55L246.46 108.495L246.873 107.835L246.92 107.76L262.554 82.76H259.016Z" fill="url(#paint1_linear_61_419)"/>
<path d="M34.9677 73.76C34.5837 73.76 34.4397 73.52 34.5837 73.184L49.7517 40.112C49.8477 39.872 50.1837 39.68 50.4717 39.68C50.7597 39.68 51.0477 39.872 51.1437 40.112L66.3117 73.184C66.4557 73.52 66.3117 73.76 65.9277 73.76H61.2237C60.8397 73.76 60.4557 73.52 60.3117 73.184L58.9677 70.256C58.6317 69.536 57.8637 69.056 57.0477 69.056H43.8477C43.0317 69.056 42.2637 69.536 41.9277 70.256L40.5837 73.184C40.4397 73.52 40.0557 73.76 39.7197 73.76H34.9677ZM45.5277 62.432C45.1917 63.2 45.5277 63.68 46.3437 63.68H54.5997C55.4157 63.68 55.7037 63.2 55.3677 62.432L51.0477 53.024C50.8557 52.64 50.6637 52.448 50.4717 52.448C50.2797 52.448 50.0877 52.64 49.8957 53.024L45.5277 62.432ZM97.5923 60.992C97.5923 70.256 90.8243 74.912 84.0083 74.912C77.2403 74.912 70.4243 70.256 70.4243 60.992V40.784C70.4243 40.4 70.6643 40.16 71.0483 40.16H75.5603C75.9443 40.16 76.1843 40.4 76.1843 40.784V60.992C76.1843 66.224 80.1203 68.816 84.0083 68.816C87.9443 68.816 91.8323 66.224 91.8323 60.992V40.784C91.8323 40.4 92.0723 40.16 92.4563 40.16H96.9683C97.3043 40.16 97.5923 40.4 97.5923 40.784V60.992ZM103.124 45.536C102.74 45.536 102.5 45.296 102.5 44.912V40.784C102.5 40.4 102.74 40.16 103.124 40.16H129.524C129.908 40.16 130.148 40.4 130.148 40.784V44.912C130.148 45.296 129.908 45.536 129.524 45.536H120.548C119.732 45.536 119.156 46.064 119.156 46.88V73.136C119.156 73.52 118.916 73.76 118.532 73.76H114.02C113.684 73.76 113.396 73.52 113.396 73.136V46.88C113.396 46.064 112.868 45.536 112.052 45.536H103.124ZM131.636 56.96C131.636 45.248 140.276 39.392 148.964 39.392C157.604 39.392 166.244 45.248 166.244 56.96C166.244 68.672 157.604 74.528 148.964 74.528C140.276 74.528 131.636 68.672 131.636 56.96ZM137.3 56.96C137.3 64.832 143.108 68.72 148.964 68.72C154.772 68.72 160.628 64.832 160.628 56.96C160.628 49.088 154.772 45.2 148.964 45.2C143.108 45.2 137.3 49.088 137.3 56.96ZM172.764 40.784C172.764 40.4 173.004 40.16 173.388 40.16H193.884C194.268 40.16 194.508 40.4 194.508 40.784V44.912C194.508 45.296 194.268 45.536 193.884 45.536H179.868C179.052 45.536 178.524 46.064 178.524 46.88V54.752C178.524 55.568 179.052 56.096 179.868 56.096H190.428C190.812 56.096 191.052 56.336 191.052 56.72V60.848C191.052 61.232 190.812 61.472 190.428 61.472H179.868C179.052 61.472 178.524 62 178.524 62.816V73.136C178.524 73.52 178.284 73.76 177.9 73.76H173.388C173.004 73.76 172.764 73.52 172.764 73.136V40.784ZM200.997 73.76C200.613 73.76 200.373 73.52 200.373 73.136V40.784C200.373 40.4 200.613 40.16 200.997 40.16H205.509C205.893 40.16 206.133 40.4 206.133 40.784V67.04C206.133 67.856 206.661 68.384 207.477 68.384H221.493C221.877 68.384 222.117 68.624 222.117 69.008V73.136C222.117 73.52 221.877 73.76 221.493 73.76H200.997ZM227.514 73.136V40.784C227.514 40.4 227.754 40.16 228.138 40.16H248.634C249.018 40.16 249.258 40.4 249.258 40.784V44.912C249.258 45.296 249.018 45.536 248.634 45.536H234.618C233.802 45.536 233.274 46.064 233.274 46.88V52.928C233.274 53.744 233.802 54.272 234.618 54.272H245.178C245.562 54.272 245.802 54.512 245.802 54.896V59.024C245.802 59.408 245.562 59.648 245.178 59.648H234.618C233.802 59.648 233.274 60.176 233.274 60.992V67.04C233.274 67.856 233.802 68.384 234.618 68.384H248.634C249.018 68.384 249.258 68.624 249.258 69.008V73.136C249.258 73.52 249.018 73.76 248.634 73.76H228.138C227.754 73.76 227.514 73.52 227.514 73.136ZM254.008 40.688C253.816 40.352 253.912 40.16 254.296 40.16H259.768C260.152 40.16 260.536 40.352 260.728 40.688L266.824 50.432C267.064 50.768 267.304 50.96 267.544 50.96C267.784 50.96 268.024 50.768 268.264 50.432L274.36 40.688C274.552 40.352 274.936 40.16 275.32 40.16H280.792C281.128 40.16 281.272 40.352 281.08 40.688L271.624 55.808C271.192 56.48 271.192 57.44 271.624 58.112L281.08 73.232C281.272 73.568 281.128 73.76 280.792 73.76H275.32C274.936 73.76 274.552 73.568 274.36 73.232L268.264 63.488C268.024 63.152 267.784 62.96 267.544 62.96C267.304 62.96 267.064 63.152 266.824 63.488L260.728 73.232C260.536 73.568 260.152 73.76 259.768 73.76H254.296C253.912 73.76 253.816 73.568 254.008 73.232L263.464 58.112C263.896 57.44 263.896 56.48 263.464 55.808L254.008 40.688Z" fill="black"/>
<path d="M34.5837 73.184L34.3109 73.0589L34.308 73.0658L34.5837 73.184ZM49.7517 40.112L50.0244 40.2371L50.0275 40.2303L50.0303 40.2234L49.7517 40.112ZM51.1437 40.112L50.8652 40.2234L50.8679 40.2303L50.871 40.2371L51.1437 40.112ZM66.3117 73.184L66.5876 73.0658L66.5844 73.0589L66.3117 73.184ZM60.3117 73.184L60.5876 73.0658L60.5844 73.0589L60.3117 73.184ZM58.9677 70.256L59.2404 70.1309L59.2396 70.1291L58.9677 70.256ZM41.9277 70.256L41.6559 70.1291L41.6551 70.1309L41.9277 70.256ZM40.5837 73.184L40.311 73.0588L40.308 73.0658L40.5837 73.184ZM45.5277 62.432L45.2556 62.3056L45.2529 62.3118L45.5277 62.432ZM55.3677 62.432L55.6426 62.3117L55.6404 62.3068L55.3677 62.432ZM51.0477 53.024L51.3205 52.8988L51.3161 52.8898L51.0477 53.024ZM49.8957 53.024L49.6273 52.8898L49.6236 52.8977L49.8957 53.024ZM34.9677 73.46C34.8299 73.46 34.8187 73.4181 34.8296 73.435C34.8392 73.4499 34.8083 73.4216 34.8595 73.3022L34.308 73.0658C34.2152 73.2824 34.1842 73.5421 34.3259 73.761C34.4688 73.9819 34.7215 74.06 34.9677 74.06V73.46ZM34.8564 73.3091L50.0244 40.2371L49.479 39.9869L34.311 73.0589L34.8564 73.3091ZM50.0303 40.2234C50.0458 40.1846 50.096 40.1212 50.1923 40.0643C50.2858 40.009 50.3897 39.98 50.4717 39.98V39.38C50.2657 39.38 50.0576 39.447 49.8871 39.5477C49.7194 39.6468 49.5536 39.7995 49.4732 40.0006L50.0303 40.2234ZM50.4717 39.98C50.6462 39.98 50.8181 40.1056 50.8652 40.2234L51.4223 40.0006C51.2774 39.6384 50.8732 39.38 50.4717 39.38V39.98ZM50.871 40.2371L66.039 73.3091L66.5844 73.0589L51.4164 39.9869L50.871 40.2371ZM66.036 73.3022C66.0872 73.4216 66.0562 73.4499 66.0659 73.435C66.0768 73.4181 66.0655 73.46 65.9277 73.46V74.06C66.1739 74.06 66.4267 73.9819 66.5696 73.761C66.7112 73.5421 66.6803 73.2824 66.5875 73.0658L66.036 73.3022ZM65.9277 73.46H61.2237V74.06H65.9277V73.46ZM61.2237 73.46C60.9495 73.46 60.6803 73.2824 60.5875 73.0658L60.036 73.3022C60.2312 73.7576 60.7299 74.06 61.2237 74.06V73.46ZM60.5844 73.0589L59.2404 70.1309L58.6951 70.3812L60.0391 73.3092L60.5844 73.0589ZM59.2396 70.1291C58.8526 69.2999 57.9762 68.756 57.0477 68.756V69.356C57.7512 69.356 58.4109 69.7721 58.6959 70.3829L59.2396 70.1291ZM57.0477 68.756H43.8477V69.356H57.0477V68.756ZM43.8477 68.756C42.9192 68.756 42.0428 69.2999 41.6559 70.1291L42.1996 70.3829C42.4846 69.7721 43.1442 69.356 43.8477 69.356V68.756ZM41.6551 70.1309L40.3111 73.0589L40.8564 73.3092L42.2004 70.3812L41.6551 70.1309ZM40.308 73.0658C40.212 73.2898 39.9376 73.46 39.7197 73.46V74.06C40.1739 74.06 40.6675 73.7502 40.8595 73.3022L40.308 73.0658ZM39.7197 73.46H34.9677V74.06H39.7197V73.46ZM45.2529 62.3118C45.0654 62.7402 45.029 63.1727 45.2541 63.5104C45.478 63.8462 45.8888 63.98 46.3437 63.98V63.38C45.9826 63.38 45.8175 63.2738 45.7533 63.1776C45.6905 63.0833 45.654 62.8918 45.8026 62.5523L45.2529 62.3118ZM46.3437 63.98H54.5997V63.38H46.3437V63.98ZM54.5997 63.98C55.0539 63.98 55.4605 63.8461 55.6717 63.5004C55.8792 63.1609 55.8264 62.7319 55.6426 62.3118L55.0929 62.5523C55.2451 62.9002 55.2163 63.0951 55.1597 63.1876C55.107 63.2739 54.9615 63.38 54.5997 63.38V63.98ZM55.6404 62.3068L51.3204 52.8988L50.7751 53.1492L55.0951 62.5572L55.6404 62.3068ZM51.3161 52.8898C51.213 52.6837 51.0999 52.508 50.9719 52.3799C50.8432 52.2512 50.6754 52.148 50.4717 52.148V52.748C50.4601 52.748 50.4843 52.7408 50.5476 52.8041C50.6115 52.8681 50.6905 52.9803 50.7794 53.1582L51.3161 52.8898ZM50.4717 52.148C50.2681 52.148 50.1003 52.2512 49.9716 52.3799C49.8435 52.508 49.7305 52.6837 49.6274 52.8898L50.1641 53.1582C50.253 52.9803 50.3319 52.8681 50.3959 52.8041C50.4592 52.7408 50.4834 52.748 50.4717 52.748V52.148ZM49.6236 52.8977L45.2556 62.3057L45.7998 62.5583L50.1678 53.1503L49.6236 52.8977ZM97.2923 60.992C97.2923 65.5453 95.6318 68.943 93.1541 71.2044C90.6716 73.4703 87.3503 74.612 84.0083 74.612V75.212C87.4824 75.212 90.9531 74.0257 93.5586 71.6476C96.1689 69.265 97.8923 65.7027 97.8923 60.992H97.2923ZM84.0083 74.612C80.6907 74.612 77.3692 73.4705 74.8803 71.2042C72.3964 68.9424 70.7243 65.5447 70.7243 60.992H70.1243C70.1243 65.7034 71.8603 69.2656 74.4764 71.6478C77.0875 74.0255 80.558 75.212 84.0083 75.212V74.612ZM70.7243 60.992V40.784H70.1243V60.992H70.7243ZM70.7243 40.784C70.7243 40.6553 70.7633 40.5813 70.8045 40.5401C70.8457 40.499 70.9196 40.46 71.0483 40.46V39.86C70.7931 39.86 70.555 39.9411 70.3802 40.1159C70.2054 40.2907 70.1243 40.5287 70.1243 40.784H70.7243ZM71.0483 40.46H75.5603V39.86H71.0483V40.46ZM75.5603 40.46C75.6891 40.46 75.763 40.499 75.8042 40.5401C75.8454 40.5813 75.8843 40.6553 75.8843 40.784H76.4843C76.4843 40.5287 76.4033 40.2907 76.2285 40.1159C76.0537 39.9411 75.8156 39.86 75.5603 39.86V40.46ZM75.8843 40.784V60.992H76.4843V40.784H75.8843ZM75.8843 60.992C75.8843 63.6898 76.9022 65.729 78.4394 67.0906C79.971 68.4471 82.0006 69.116 84.0083 69.116V68.516C82.1281 68.516 80.2457 67.8889 78.8373 66.6414C77.4345 65.399 76.4843 63.5262 76.4843 60.992H75.8843ZM84.0083 69.116C86.0395 69.116 88.0695 68.4475 89.5957 67.0902C91.1274 65.728 92.1323 63.6886 92.1323 60.992H91.5323C91.5323 63.5274 90.5933 65.4001 89.197 66.6418C87.7952 67.8885 85.9132 68.516 84.0083 68.516V69.116ZM92.1323 60.992V40.784H91.5323V60.992H92.1323ZM92.1323 40.784C92.1323 40.6553 92.1713 40.5813 92.2125 40.5401C92.2537 40.499 92.3276 40.46 92.4563 40.46V39.86C92.2011 39.86 91.963 39.9411 91.7882 40.1159C91.6134 40.2907 91.5323 40.5287 91.5323 40.784H92.1323ZM92.4563 40.46H96.9683V39.86H92.4563V40.46ZM96.9683 40.46C97.1542 40.46 97.2923 40.5808 97.2923 40.784H97.8923C97.8923 40.2192 97.4545 39.86 96.9683 39.86V40.46ZM97.2923 40.784V60.992H97.8923V40.784H97.2923ZM103.124 45.236C102.995 45.236 102.921 45.1971 102.88 45.1559C102.839 45.1147 102.8 45.0407 102.8 44.912H102.2C102.2 45.1673 102.281 45.4053 102.456 45.5801C102.631 45.755 102.869 45.836 103.124 45.836V45.236ZM102.8 44.912V40.784H102.2V44.912H102.8ZM102.8 40.784C102.8 40.6553 102.839 40.5813 102.88 40.5401C102.921 40.499 102.995 40.46 103.124 40.46V39.86C102.869 39.86 102.631 39.9411 102.456 40.1159C102.281 40.2907 102.2 40.5287 102.2 40.784H102.8ZM103.124 40.46H129.524V39.86H103.124V40.46ZM129.524 40.46C129.653 40.46 129.727 40.499 129.768 40.5401C129.809 40.5813 129.848 40.6553 129.848 40.784H130.448C130.448 40.5287 130.367 40.2907 130.192 40.1159C130.017 39.9411 129.779 39.86 129.524 39.86V40.46ZM129.848 40.784V44.912H130.448V40.784H129.848ZM129.848 44.912C129.848 45.0407 129.809 45.1147 129.768 45.1559C129.727 45.1971 129.653 45.236 129.524 45.236V45.836C129.779 45.836 130.017 45.755 130.192 45.5801C130.367 45.4053 130.448 45.1673 130.448 44.912H129.848ZM129.524 45.236H120.548V45.836H129.524V45.236ZM120.548 45.236C120.075 45.236 119.649 45.3899 119.339 45.6846C119.028 45.9809 118.856 46.3984 118.856 46.88H119.456C119.456 46.5456 119.572 46.2911 119.753 46.1194C119.935 45.9461 120.205 45.836 120.548 45.836V45.236ZM118.856 46.88V73.136H119.456V46.88H118.856ZM118.856 73.136C118.856 73.2647 118.817 73.3387 118.776 73.3799C118.735 73.4211 118.661 73.46 118.532 73.46V74.06C118.787 74.06 119.025 73.979 119.2 73.8041C119.375 73.6293 119.456 73.3913 119.456 73.136H118.856ZM118.532 73.46H114.02V74.06H118.532V73.46ZM114.02 73.46C113.834 73.46 113.696 73.3392 113.696 73.136H113.096C113.096 73.7008 113.534 74.06 114.02 74.06V73.46ZM113.696 73.136V46.88H113.096V73.136H113.696ZM113.696 46.88C113.696 46.4061 113.541 45.9891 113.242 45.6899C112.943 45.3906 112.526 45.236 112.052 45.236V45.836C112.394 45.836 112.649 45.9454 112.818 46.1141C112.987 46.2829 113.096 46.5379 113.096 46.88H113.696ZM112.052 45.236H103.124V45.836H112.052V45.236ZM131.936 56.96C131.936 51.1837 134.064 46.8745 137.243 44.0068C140.428 41.1344 144.685 39.692 148.964 39.692V39.092C144.555 39.092 140.149 40.5776 136.841 43.5612C133.529 46.5495 131.336 51.0243 131.336 56.96H131.936ZM148.964 39.692C153.219 39.692 157.465 41.1342 160.643 44.0066C163.817 46.8743 165.944 51.1837 165.944 56.96H166.544C166.544 51.0243 164.352 46.5497 161.045 43.5614C157.744 40.5778 153.35 39.092 148.964 39.092V39.692ZM165.944 56.96C165.944 62.7363 163.817 67.0457 160.643 69.9134C157.465 72.7858 153.219 74.228 148.964 74.228V74.828C153.35 74.828 157.744 73.3422 161.045 70.3586C164.352 67.3704 166.544 62.8957 166.544 56.96H165.944ZM148.964 74.228C144.685 74.228 140.428 72.7856 137.243 69.9132C134.064 67.0455 131.936 62.7363 131.936 56.96H131.336C131.336 62.8957 133.529 67.3705 136.841 70.3588C140.149 73.3424 144.555 74.828 148.964 74.828V74.228ZM137 56.96C137 60.9759 138.485 63.999 140.736 66.0155C142.982 68.0271 145.973 69.02 148.964 69.02V68.42C146.1 68.42 143.258 67.4689 141.136 65.5685C139.02 63.673 137.6 60.8161 137.6 56.96H137ZM148.964 69.02C151.933 69.02 154.922 68.0269 157.174 66.0158C159.431 63.9997 160.928 60.9767 160.928 56.96H160.328C160.328 60.8153 158.897 63.6723 156.775 65.5683C154.646 67.4692 151.804 68.42 148.964 68.42V69.02ZM160.928 56.96C160.928 52.9433 159.431 49.9203 157.174 47.9043C154.922 45.8932 151.933 44.9 148.964 44.9V45.5C151.804 45.5 154.646 46.4509 156.775 48.3518C158.897 50.2477 160.328 53.1047 160.328 56.96H160.928ZM148.964 44.9C145.973 44.9 142.982 45.8929 140.736 47.9045C138.485 49.921 137 52.9441 137 56.96H137.6C137.6 53.1039 139.02 50.247 141.136 48.3515C143.258 46.4511 146.1 45.5 148.964 45.5V44.9ZM173.064 40.784C173.064 40.6553 173.103 40.5813 173.144 40.5401C173.185 40.499 173.259 40.46 173.388 40.46V39.86C173.132 39.86 172.894 39.9411 172.72 40.1159C172.545 40.2907 172.464 40.5287 172.464 40.784H173.064ZM173.388 40.46H193.884V39.86H173.388V40.46ZM193.884 40.46C194.012 40.46 194.086 40.499 194.128 40.5401C194.169 40.5813 194.208 40.6553 194.208 40.784H194.808C194.808 40.5287 194.727 40.2907 194.552 40.1159C194.377 39.9411 194.139 39.86 193.884 39.86V40.46ZM194.208 40.784V44.912H194.808V40.784H194.208ZM194.208 44.912C194.208 45.0407 194.169 45.1147 194.128 45.1559C194.086 45.1971 194.012 45.236 193.884 45.236V45.836C194.139 45.836 194.377 45.755 194.552 45.5801C194.727 45.4053 194.808 45.1673 194.808 44.912H194.208ZM193.884 45.236H179.868V45.836H193.884V45.236ZM179.868 45.236C179.394 45.236 178.977 45.3906 178.678 45.6899C178.378 45.9891 178.224 46.4061 178.224 46.88H178.824C178.824 46.5379 178.933 46.2829 179.102 46.1141C179.271 45.9454 179.526 45.836 179.868 45.836V45.236ZM178.224 46.88V54.752H178.824V46.88H178.224ZM178.224 54.752C178.224 55.2259 178.378 55.6429 178.678 55.9421C178.977 56.2414 179.394 56.396 179.868 56.396V55.796C179.526 55.796 179.271 55.6866 179.102 55.5179C178.933 55.3491 178.824 55.0941 178.824 54.752H178.224ZM179.868 56.396H190.428V55.796H179.868V56.396ZM190.428 56.396C190.556 56.396 190.63 56.435 190.672 56.4761C190.713 56.5173 190.752 56.5913 190.752 56.72H191.352C191.352 56.4647 191.271 56.2267 191.096 56.0519C190.921 55.8771 190.683 55.796 190.428 55.796V56.396ZM190.752 56.72V60.848H191.352V56.72H190.752ZM190.752 60.848C190.752 60.9767 190.713 61.0507 190.672 61.0919C190.63 61.1331 190.556 61.172 190.428 61.172V61.772C190.683 61.772 190.921 61.691 191.096 61.5161C191.271 61.3413 191.352 61.1033 191.352 60.848H190.752ZM190.428 61.172H179.868V61.772H190.428V61.172ZM179.868 61.172C179.394 61.172 178.977 61.3266 178.678 61.6259C178.378 61.9251 178.224 62.3421 178.224 62.816H178.824C178.824 62.4739 178.933 62.2189 179.102 62.0501C179.271 61.8814 179.526 61.772 179.868 61.772V61.172ZM178.224 62.816V73.136H178.824V62.816H178.224ZM178.224 73.136C178.224 73.2647 178.185 73.3387 178.144 73.3799C178.102 73.4211 178.028 73.46 177.9 73.46V74.06C178.155 74.06 178.393 73.979 178.568 73.8041C178.743 73.6293 178.824 73.3913 178.824 73.136H178.224ZM177.9 73.46H173.388V74.06H177.9V73.46ZM173.388 73.46C173.259 73.46 173.185 73.4211 173.144 73.3799C173.103 73.3387 173.064 73.2647 173.064 73.136H172.464C172.464 73.3913 172.545 73.6293 172.72 73.8041C172.894 73.979 173.132 74.06 173.388 74.06V73.46ZM173.064 73.136V40.784H172.464V73.136H173.064ZM200.997 73.46C200.868 73.46 200.794 73.4211 200.753 73.3799C200.712 73.3387 200.673 73.2647 200.673 73.136H200.073C200.073 73.3913 200.154 73.6293 200.329 73.8041C200.504 73.979 200.742 74.06 200.997 74.06V73.46ZM200.673 73.136V40.784H200.073V73.136H200.673ZM200.673 40.784C200.673 40.6553 200.712 40.5813 200.753 40.5401C200.794 40.499 200.868 40.46 200.997 40.46V39.86C200.742 39.86 200.504 39.9411 200.329 40.1159C200.154 40.2907 200.073 40.5287 200.073 40.784H200.673ZM200.997 40.46H205.509V39.86H200.997V40.46ZM205.509 40.46C205.638 40.46 205.712 40.499 205.753 40.5401C205.794 40.5813 205.833 40.6553 205.833 40.784H206.433C206.433 40.5287 206.352 40.2907 206.177 40.1159C206.002 39.9411 205.764 39.86 205.509 39.86V40.46ZM205.833 40.784V67.04H206.433V40.784H205.833ZM205.833 67.04C205.833 67.5139 205.988 67.9309 206.287 68.2301C206.586 68.5294 207.003 68.684 207.477 68.684V68.084C207.135 68.084 206.88 67.9746 206.711 67.8059C206.542 67.6371 206.433 67.3821 206.433 67.04H205.833ZM207.477 68.684H221.493V68.084H207.477V68.684ZM221.493 68.684C221.622 68.684 221.696 68.723 221.737 68.7641C221.778 68.8053 221.817 68.8793 221.817 69.008H222.417C222.417 68.7527 222.336 68.5147 222.161 68.3399C221.986 68.1651 221.748 68.084 221.493 68.084V68.684ZM221.817 69.008V73.136H222.417V69.008H221.817ZM221.817 73.136C221.817 73.2647 221.778 73.3387 221.737 73.3799C221.696 73.4211 221.622 73.46 221.493 73.46V74.06C221.748 74.06 221.986 73.979 222.161 73.8041C222.336 73.6293 222.417 73.3913 222.417 73.136H221.817ZM221.493 73.46H200.997V74.06H221.493V73.46ZM227.814 73.136V40.784H227.214V73.136H227.814ZM227.814 40.784C227.814 40.6553 227.853 40.5813 227.894 40.5401C227.935 40.499 228.009 40.46 228.138 40.46V39.86C227.882 39.86 227.644 39.9411 227.47 40.1159C227.295 40.2907 227.214 40.5287 227.214 40.784H227.814ZM228.138 40.46H248.634V39.86H228.138V40.46ZM248.634 40.46C248.762 40.46 248.836 40.499 248.878 40.5401C248.919 40.5813 248.958 40.6553 248.958 40.784H249.558C249.558 40.5287 249.477 40.2907 249.302 40.1159C249.127 39.9411 248.889 39.86 248.634 39.86V40.46ZM248.958 40.784V44.912H249.558V40.784H248.958ZM248.958 44.912C248.958 45.0407 248.919 45.1147 248.878 45.1559C248.836 45.1971 248.762 45.236 248.634 45.236V45.836C248.889 45.836 249.127 45.755 249.302 45.5801C249.477 45.4053 249.558 45.1673 249.558 44.912H248.958ZM248.634 45.236H234.618V45.836H248.634V45.236ZM234.618 45.236C234.144 45.236 233.727 45.3906 233.428 45.6899C233.128 45.9891 232.974 46.4061 232.974 46.88H233.574C233.574 46.5379 233.683 46.2829 233.852 46.1141C234.021 45.9454 234.276 45.836 234.618 45.836V45.236ZM232.974 46.88V52.928H233.574V46.88H232.974ZM232.974 52.928C232.974 53.4019 233.128 53.8189 233.428 54.1181C233.727 54.4174 234.144 54.572 234.618 54.572V53.972C234.276 53.972 234.021 53.8626 233.852 53.6939C233.683 53.5251 233.574 53.2701 233.574 52.928H232.974ZM234.618 54.572H245.178V53.972H234.618V54.572ZM245.178 54.572C245.306 54.572 245.38 54.611 245.422 54.6521C245.463 54.6933 245.502 54.7673 245.502 54.896H246.102C246.102 54.6407 246.021 54.4027 245.846 54.2279C245.671 54.0531 245.433 53.972 245.178 53.972V54.572ZM245.502 54.896V59.024H246.102V54.896H245.502ZM245.502 59.024C245.502 59.1527 245.463 59.2267 245.422 59.2679C245.38 59.3091 245.306 59.348 245.178 59.348V59.948C245.433 59.948 245.671 59.867 245.846 59.6921C246.021 59.5173 246.102 59.2793 246.102 59.024H245.502ZM245.178 59.348H234.618V59.948H245.178V59.348ZM234.618 59.348C234.144 59.348 233.727 59.5026 233.428 59.8019C233.128 60.1011 232.974 60.5181 232.974 60.992H233.574C233.574 60.6499 233.683 60.3949 233.852 60.2261C234.021 60.0574 234.276 59.948 234.618 59.948V59.348ZM232.974 60.992V67.04H233.574V60.992H232.974ZM232.974 67.04C232.974 67.5139 233.128 67.9309 233.428 68.2301C233.727 68.5294 234.144 68.684 234.618 68.684V68.084C234.276 68.084 234.021 67.9746 233.852 67.8059C233.683 67.6371 233.574 67.3821 233.574 67.04H232.974ZM234.618 68.684H248.634V68.084H234.618V68.684ZM248.634 68.684C248.762 68.684 248.836 68.723 248.878 68.7641C248.919 68.8053 248.958 68.8793 248.958 69.008H249.558C249.558 68.7527 249.477 68.5147 249.302 68.3399C249.127 68.1651 248.889 68.084 248.634 68.084V68.684ZM248.958 69.008V73.136H249.558V69.008H248.958ZM248.958 73.136C248.958 73.2647 248.919 73.3387 248.878 73.3799C248.836 73.4211 248.762 73.46 248.634 73.46V74.06C248.889 74.06 249.127 73.979 249.302 73.8041C249.477 73.6293 249.558 73.3913 249.558 73.136H248.958ZM248.634 73.46H228.138V74.06H248.634V73.46ZM228.138 73.46C228.009 73.46 227.935 73.4211 227.894 73.3799C227.853 73.3387 227.814 73.2647 227.814 73.136H227.214C227.214 73.3913 227.295 73.6293 227.47 73.8041C227.644 73.979 227.882 74.06 228.138 74.06V73.46ZM254.008 40.688L253.747 40.837L253.753 40.8471L254.008 40.688ZM260.728 40.688L260.467 40.837L260.474 40.8471L260.728 40.688ZM266.824 50.432L266.57 50.5911L266.574 50.5989L266.58 50.6064L266.824 50.432ZM268.264 50.432L268.508 50.6064L268.513 50.5989L268.518 50.5911L268.264 50.432ZM274.36 40.688L274.614 40.8472L274.62 40.8369L274.36 40.688ZM281.08 40.688L281.334 40.8472L281.34 40.8368L281.08 40.688ZM271.624 55.808L271.876 55.9702L271.878 55.9671L271.624 55.808ZM271.624 58.112L271.878 57.9529L271.876 57.9498L271.624 58.112ZM281.08 73.232L281.341 73.0831L281.334 73.0729L281.08 73.232ZM274.36 73.232L274.621 73.083L274.614 73.0729L274.36 73.232ZM268.264 63.488L268.518 63.3289L268.513 63.3211L268.508 63.3136L268.264 63.488ZM266.824 63.488L266.58 63.3136L266.574 63.3211L266.57 63.3289L266.824 63.488ZM260.728 73.232L260.473 73.0728L260.467 73.0832L260.728 73.232ZM254.008 73.232L253.753 73.0728L253.747 73.0832L254.008 73.232ZM263.464 58.112L263.211 57.9498L263.209 57.9529L263.464 58.112ZM263.464 55.808L263.209 55.9671L263.211 55.9702L263.464 55.808ZM254.268 40.5392C254.23 40.4727 254.217 40.4303 254.213 40.4095C254.209 40.3905 254.217 40.4083 254.201 40.4392C254.193 40.4537 254.183 40.4643 254.175 40.4708C254.168 40.4768 254.165 40.4772 254.17 40.475C254.184 40.4697 254.222 40.46 254.296 40.46V39.86C254.084 39.86 253.803 39.9091 253.671 40.1568C253.544 40.3947 253.644 40.6554 253.747 40.8369L254.268 40.5392ZM254.296 40.46H259.768V39.86H254.296V40.46ZM259.768 40.46C260.06 40.46 260.336 40.6076 260.467 40.8369L260.988 40.5392C260.735 40.0964 260.243 39.86 259.768 39.86V40.46ZM260.474 40.8471L266.57 50.5911L267.078 50.2729L260.982 40.5289L260.474 40.8471ZM266.58 50.6064C266.825 50.9499 267.144 51.26 267.544 51.26V50.66C267.464 50.66 267.303 50.5861 267.068 50.2576L266.58 50.6064ZM267.544 51.26C267.944 51.26 268.263 50.9499 268.508 50.6064L268.02 50.2576C267.785 50.5861 267.624 50.66 267.544 50.66V51.26ZM268.518 50.5911L274.614 40.8471L274.106 40.5289L268.01 50.2729L268.518 50.5911ZM274.62 40.8369C274.751 40.6076 275.027 40.46 275.32 40.46V39.86C274.844 39.86 274.352 40.0964 274.099 40.5392L274.62 40.8369ZM275.32 40.46H280.792V39.86H275.32V40.46ZM280.792 40.46C280.849 40.46 280.881 40.4685 280.894 40.4736C280.904 40.4777 280.89 40.4745 280.877 40.4524C280.863 40.4294 280.867 40.4146 280.865 40.4261C280.864 40.4408 280.854 40.4778 280.819 40.5392L281.34 40.8368C281.455 40.6358 281.53 40.3744 281.391 40.1437C281.255 39.9173 280.997 39.86 280.792 39.86V40.46ZM280.825 40.5289L271.369 55.6489L271.878 55.9671L281.334 40.8471L280.825 40.5289ZM271.371 55.6458C270.876 56.4166 270.876 57.5034 271.371 58.2742L271.876 57.9498C271.508 57.3766 271.508 56.5434 271.876 55.9702L271.371 55.6458ZM271.369 58.2711L280.825 73.3911L281.334 73.0729L271.878 57.9529L271.369 58.2711ZM280.819 73.3808C280.854 73.4422 280.864 73.4792 280.865 73.4939C280.867 73.5054 280.863 73.4906 280.877 73.4677C280.89 73.4455 280.904 73.4423 280.894 73.4465C280.881 73.4515 280.849 73.46 280.792 73.46V74.06C280.997 74.06 281.255 74.0027 281.391 73.7764C281.53 73.5456 281.455 73.2843 281.34 73.0832L280.819 73.3808ZM280.792 73.46H275.32V74.06H280.792V73.46ZM275.32 73.46C275.027 73.46 274.751 73.3124 274.62 73.0832L274.099 73.3809C274.352 73.8236 274.844 74.06 275.32 74.06V73.46ZM274.614 73.0729L268.518 63.3289L268.01 63.6471L274.106 73.3911L274.614 73.0729ZM268.508 63.3136C268.263 62.9701 267.944 62.66 267.544 62.66V63.26C267.624 63.26 267.785 63.3339 268.02 63.6624L268.508 63.3136ZM267.544 62.66C267.144 62.66 266.825 62.9701 266.58 63.3136L267.068 63.6624C267.303 63.3339 267.464 63.26 267.544 63.26V62.66ZM266.57 63.3289L260.474 73.0729L260.982 73.3911L267.078 63.6471L266.57 63.3289ZM260.467 73.0832C260.336 73.3124 260.06 73.46 259.768 73.46V74.06C260.243 74.06 260.735 73.8236 260.988 73.3809L260.467 73.0832ZM259.768 73.46H254.296V74.06H259.768V73.46ZM254.296 73.46C254.222 73.46 254.184 73.4503 254.17 73.445C254.165 73.4429 254.168 73.4432 254.175 73.4492C254.183 73.4557 254.193 73.4663 254.201 73.4808C254.217 73.5117 254.209 73.5295 254.213 73.5105C254.217 73.4897 254.23 73.4474 254.268 73.3809L253.747 73.0832C253.644 73.2646 253.544 73.5253 253.671 73.7632C253.803 74.0109 254.084 74.06 254.296 74.06V73.46ZM254.262 73.3911L263.718 58.2711L263.209 57.9529L253.753 73.0729L254.262 73.3911ZM263.716 58.2742C264.212 57.5034 264.212 56.4166 263.716 55.6458L263.211 55.9702C263.58 56.5434 263.58 57.3766 263.211 57.9498L263.716 58.2742ZM263.718 55.6489L254.262 40.5289L253.753 40.8471L263.209 55.9671L263.718 55.6489Z" fill="url(#paint2_linear_61_419)"/>
<defs>
<linearGradient id="paint0_linear_61_419" x1="296.024" y1="359.375" x2="296.024" y2="579.036" gradientUnits="userSpaceOnUse">
<stop stop-color="#8BC1C8"/>
<stop offset="0.346875" stop-color="#98F7D7"/>
<stop offset="1" stop-color="white"/>
</linearGradient>
<linearGradient id="paint1_linear_61_419" x1="215.632" y1="82.76" x2="215.632" y2="113.76" gradientUnits="userSpaceOnUse">
<stop stop-color="#8BC1C8"/>
<stop offset="0.346875" stop-color="#98F7D7"/>
<stop offset="1" stop-color="white"/>
</linearGradient>
<linearGradient id="paint2_linear_61_419" x1="189.491" y1="34.76" x2="189.491" y2="87.76" gradientUnits="userSpaceOnUse">
<stop stop-color="#8BC1C8"/>
<stop offset="0.346875" stop-color="#98F7D7"/>
<stop offset="1" stop-color="white"/>
</linearGradient>
</defs>
</svg>
