<svg width="982" height="626" viewBox="0 0 982 626" fill="none" xmlns="http://www.w3.org/2000/svg">
<g filter="url(#filter0_f_37_44)">
<path fill-rule="evenodd" clip-rule="evenodd" d="M621.61 161.133C622.293 158.199 622.797 155.212 623.113 152.176C629.351 92.3674 560.651 36.1906 469.668 26.7015C391.355 18.5339 322.058 47.6184 300.299 94.0175C289.908 92.2829 279.351 90.8492 268.647 89.7328C183.712 80.8745 103.731 93.4739 39.7702 121.583C9.33004 84.6425 -43.4506 57.1828 -105.589 50.7022C-208.668 39.9516 -298.464 91.0036 -306.153 164.73C-313.842 238.456 -236.513 306.938 -133.434 317.689C-123.48 318.727 -113.65 319.189 -104.007 319.11C-103.762 322.391 -103.421 325.662 -102.984 328.921C-270.948 320.193 -405.795 363.288 -412.935 431.746C-420.703 506.225 -274.371 582.52 -86.0932 602.156C43.6164 615.684 159.395 598.791 221.415 562.619C228.244 563.304 235.04 563.851 241.797 564.261C309.559 600.247 413.853 629.511 532.572 641.893C745.568 664.107 924.341 623.568 931.873 551.347C936.253 509.354 881.776 465.896 793.536 432.507C828.826 409.487 851.76 378.055 855.556 341.658C864.461 256.271 764.669 175.89 632.665 162.123C628.965 161.737 625.28 161.407 621.61 161.133Z" fill="url(#paint0_radial_37_44)" style="mix-blend-mode:screen"/>
<path fill-rule="evenodd" clip-rule="evenodd" d="M278.821 147.845C279.063 145.264 279.187 142.653 279.187 140.017C279.187 88.093 231.263 46 172.147 46C121.264 46 78.6724 77.1858 67.797 118.984C61.002 118.425 54.1201 118.139 47.1647 118.139C-8.0217 118.139 -58.5848 136.124 -97.8117 165.994C-119.854 136.995 -155.619 118.139 -195.993 118.139C-262.969 118.139 -317.263 170.027 -317.263 234.035C-317.263 272.424 -297.733 306.453 -267.65 327.544C-268.541 332.143 -269.002 336.855 -269.002 341.652C-269.002 352.671 -266.566 363.238 -262.098 373.034C-325.621 393.616 -367.999 430.653 -367.999 472.922C-367.999 537.582 -268.828 590 -146.495 590C-62.2172 590 11.0677 565.122 48.5064 528.501C52.9416 528.477 57.3465 528.338 61.7176 528.085C107.684 552.922 176.681 568.713 253.819 568.713C392.212 568.713 504.402 517.884 504.402 455.183C504.402 418.726 466.473 386.282 407.519 365.51C428.658 342.579 441.292 313.53 441.292 281.93C441.292 207.799 371.762 147.704 285.992 147.704C283.589 147.704 281.198 147.752 278.821 147.845Z" fill="url(#paint1_radial_37_44)" style="mix-blend-mode:screen"/>
<path fill-rule="evenodd" clip-rule="evenodd" d="M20.0891 175.398C37.1887 141.343 95.6673 119.416 163.145 124.555C213.391 128.382 256.432 146.288 279.988 170.151C319 151.951 372.271 142.859 430.117 147.265C543.858 155.928 632.214 213.493 627.465 275.84C622.717 338.188 526.662 381.708 412.921 373.045C359.074 368.944 310.917 353.882 275.634 332.542C278.362 342.513 279.653 352.674 279.382 362.939C289.053 362.73 299.008 362.993 309.154 363.766C366.194 368.11 414.817 387.475 439.744 412.659C525.296 436.499 580.029 469.634 577.545 502.254C573.528 554.988 421.495 586.406 237.969 572.428C135.675 564.637 45.1881 544.387 -14.1783 518.856C-19.9911 518.627 -25.8414 518.299 -31.7244 517.871C-83.7184 544.889 -182.497 558.411 -294.26 549.899C-456.488 537.543 -584.642 483.442 -580.5 429.059C-577.793 393.51 -519.223 366.64 -433.665 355.745C-438.963 347.055 -441.517 337.922 -440.811 328.655C-440.504 324.62 -439.59 320.704 -438.115 316.925C-476.657 296.149 -500.376 265.556 -497.917 233.27C-493.817 179.437 -418.492 141.28 -329.675 148.045C-276.134 152.123 -229.912 171.593 -202.539 198.21C-148.606 177.049 -80.4008 167.03 -7.21672 172.604C2.00657 173.307 11.1142 174.242 20.0891 175.398Z" fill="url(#paint2_radial_37_44)" style="mix-blend-mode:screen"/>
<path fill-rule="evenodd" clip-rule="evenodd" d="M601.993 335.845C602.363 333.061 602.551 330.245 602.551 327.403C602.551 271.399 529.424 226 439.218 226C361.574 226 296.583 259.635 279.988 304.717C269.62 304.114 259.12 303.806 248.507 303.806C164.297 303.806 87.1418 323.203 27.2847 355.42C-6.34946 324.142 -60.9251 303.806 -122.532 303.806C-224.731 303.806 -307.58 359.77 -307.58 428.805C-307.58 470.209 -277.779 506.911 -231.876 529.659C-233.235 534.62 -233.939 539.702 -233.939 544.876C-233.939 556.76 -230.222 568.157 -223.404 578.723C-320.334 600.922 -384.999 640.868 -384.999 686.457C-384.999 756.196 -233.673 812.732 -47.0033 812.732C81.5984 812.732 193.425 785.899 250.553 746.402C257.321 746.376 264.042 746.226 270.712 745.953C340.854 772.741 446.137 789.773 563.843 789.773C775.02 789.773 946.212 734.951 946.212 667.324C946.212 628.004 888.336 593.012 798.376 570.608C830.634 545.875 849.911 514.544 849.911 480.463C849.911 400.509 743.814 335.693 612.937 335.693C609.269 335.693 605.62 335.744 601.993 335.845Z" fill="url(#paint3_radial_37_44)" style="mix-blend-mode:screen"/>
</g>
<defs>
<filter id="filter0_f_37_44" x="-602.598" y="3.33093" width="1570.81" height="831.401" filterUnits="userSpaceOnUse" color-interpolation-filters="sRGB">
<feFlood flood-opacity="0" result="BackgroundImageFix"/>
<feBlend mode="normal" in="SourceGraphic" in2="BackgroundImageFix" result="shape"/>
<feGaussianBlur stdDeviation="11" result="effect1_foregroundBlur_37_44"/>
</filter>
<radialGradient id="paint0_radial_37_44" cx="0" cy="0" r="1" gradientUnits="userSpaceOnUse" gradientTransform="translate(258.677 321.405) rotate(95.9541) scale(315 656.543)">
<stop offset="0.0708332" stop-color="#D9D9D9"/>
<stop offset="0.654167" stop-color="#D9D9D9" stop-opacity="0"/>
</radialGradient>
<radialGradient id="paint1_radial_37_44" cx="0" cy="0" r="1" gradientUnits="userSpaceOnUse" gradientTransform="translate(56.2871 318) rotate(90) scale(272 424.286)">
<stop offset="0.0708332" stop-color="#D9D9D9"/>
<stop offset="0.654167" stop-color="#D9D9D9" stop-opacity="0"/>
</radialGradient>
<radialGradient id="paint2_radial_37_44" cx="0" cy="0" r="1" gradientUnits="userSpaceOnUse" gradientTransform="translate(7.87781 342.82) rotate(94.3554) scale(229.426 580.13)">
<stop offset="0.0708332" stop-color="#D9D9D9"/>
<stop offset="0.654167" stop-color="#D9D9D9" stop-opacity="0"/>
</radialGradient>
<radialGradient id="paint3_radial_37_44" cx="0" cy="0" r="1" gradientUnits="userSpaceOnUse" gradientTransform="translate(262.426 519.366) rotate(90) scale(293.366 647.424)">
<stop offset="0.0708332" stop-color="#D9D9D9"/>
<stop offset="0.654167" stop-color="#D9D9D9" stop-opacity="0"/>
</radialGradient>
</defs>
</svg>
